<svg width="24" height="20" viewBox="0 0 24 20" fill="none" xmlns="http://www.w3.org/2000/svg">
<path d="M8.75 15.833C9.89873 15.833 10.833 16.7683 10.833 17.917C10.8328 19.0656 9.89862 20 8.75 20C7.60138 20 6.66717 19.0656 6.66699 17.917C6.66699 16.7683 7.60127 15.833 8.75 15.833ZM18.75 15.833C19.8987 15.833 20.833 16.7683 20.833 17.917C20.8328 19.0656 19.8986 20 18.75 20C17.6014 20 16.6672 19.0656 16.667 17.917C16.667 16.7683 17.6013 15.833 18.75 15.833ZM8.75 17.2227C8.36715 17.2227 8.05566 17.5341 8.05566 17.917C8.05584 18.2997 8.36726 18.6113 8.75 18.6113C9.13274 18.6113 9.44416 18.2997 9.44434 17.917C9.44434 17.5341 9.13285 17.2227 8.75 17.2227ZM18.75 17.2227C18.3672 17.2227 18.0557 17.5341 18.0557 17.917C18.0558 18.2997 18.3673 18.6113 18.75 18.6113C19.1327 18.6113 19.4442 18.2997 19.4443 17.917C19.4443 17.5341 19.1328 17.2227 18.75 17.2227ZM4.78516 0C5.10556 0 5.3825 0.214796 5.45215 0.516602L5.94141 2.63867H22.6494C22.8639 2.63867 23.0661 2.73619 23.1953 2.90137C23.3243 3.06658 23.3655 3.28044 23.3066 3.47949L20.5723 12.7158C20.4884 12.999 20.2202 13.1943 19.915 13.1943H7.51758C7.14151 13.1953 6.83594 13.4914 6.83594 13.8545C6.83612 14.218 7.14278 14.5137 7.51953 14.5137H19.915C20.2926 14.5137 20.5986 14.8094 20.5986 15.1738C20.5985 15.5381 20.2925 15.833 19.915 15.833H7.51953C6.38887 15.833 5.46893 14.9456 5.46875 13.8545C5.46875 13.0424 5.97858 12.3429 6.70508 12.0381L4.2373 1.31934H0.683594C0.306165 1.31934 0.000242888 1.02435 0 0.660156C0 0.295763 0.306015 5.90527e-07 0.683594 0H4.78516ZM8.06738 11.875H19.3994L21.7432 3.95801H6.24512L8.06738 11.875Z" fill="white"/>
</svg>
